<?xml version="1.0" encoding="utf-8" standalone="no"?>
<!DOCTYPE svg PUBLIC "-//W3C//DTD SVG 1.1//EN"
  "http://www.w3.org/Graphics/SVG/1.1/DTD/svg11.dtd">
<svg xmlns:xlink="http://www.w3.org/1999/xlink" width="716.4525pt" height="707.2125pt" viewBox="0 0 716.4525 707.2125" xmlns="http://www.w3.org/2000/svg" version="1.1">
 <metadata>
  <rdf:RDF xmlns:dc="http://purl.org/dc/elements/1.1/" xmlns:cc="http://creativecommons.org/ns#" xmlns:rdf="http://www.w3.org/1999/02/22-rdf-syntax-ns#">
   <cc:Work>
    <dc:type rdf:resource="http://purl.org/dc/dcmitype/StillImage"/>
    <dc:date>2025-12-16T13:16:56.102623</dc:date>
    <dc:format>image/svg+xml</dc:format>
    <dc:creator>
     <cc:Agent>
      <dc:title>Matplotlib v3.10.7, https://matplotlib.org/</dc:title>
     </cc:Agent>
    </dc:creator>
   </cc:Work>
  </rdf:RDF>
 </metadata>
 <defs>
  <style type="text/css">*{stroke-linejoin: round; stroke-linecap: butt}</style>
 </defs>
 <g id="figure_1">
  <g id="patch_1">
   <path d="M 0 707.2125 
L 716.4525 707.2125 
L 716.4525 0 
L 0 0 
z
" style="fill: #ffffff"/>
  </g>
  <g id="axes_1">
   <g id="patch_2">
    <path d="M 678.55375 379.685 
C 678.55375 337.619978 670.267858 295.963986 654.170271 257.100973 
C 638.072684 218.23796 614.47646 182.923715 584.731997 153.179253 
C 554.987535 123.43479 519.67329 99.838566 480.810277 83.740979 
C 441.947264 67.643392 400.291272 59.3575 358.22625 59.3575 
C 316.161228 59.3575 274.505236 67.643392 235.642223 83.740979 
C 196.77921 99.838566 161.464965 123.43479 131.720503 153.179253 
C 101.97604 182.923715 78.379816 218.23796 62.282229 257.100973 
C 46.184642 295.963986 37.89875 337.619978 37.89875 379.685 
C 37.89875 421.750022 46.184642 463.406014 62.282229 502.269027 
C 78.379816 541.13204 101.97604 576.446285 131.720503 606.190747 
C 161.464965 635.93521 196.77921 659.531434 235.642223 675.629021 
C 274.505236 691.726608 316.161228 700.0125 358.22625 700.0125 
C 400.291272 700.0125 441.947264 691.726608 480.810277 675.629021 
C 519.67329 659.531434 554.987535 635.93521 584.731997 606.190747 
C 614.47646 576.446285 638.072684 541.13204 654.170271 502.269027 
C 670.267858 463.406014 678.55375 421.750022 678.55375 379.685 
M 358.22625 379.685 
C 358.22625 379.685 358.22625 379.685 358.22625 379.685 
C 358.22625 379.685 358.22625 379.685 358.22625 379.685 
C 358.22625 379.685 358.22625 379.685 358.22625 379.685 
C 358.22625 379.685 358.22625 379.685 358.22625 379.685 
C 358.22625 379.685 358.22625 379.685 358.22625 379.685 
C 358.22625 379.685 358.22625 379.685 358.22625 379.685 
C 358.22625 379.685 358.22625 379.685 358.22625 379.685 
C 358.22625 379.685 358.22625 379.685 358.22625 379.685 
C 358.22625 379.685 358.22625 379.685 358.22625 379.685 
C 358.22625 379.685 358.22625 379.685 358.22625 379.685 
C 358.22625 379.685 358.22625 379.685 358.22625 379.685 
C 358.22625 379.685 358.22625 379.685 358.22625 379.685 
C 358.22625 379.685 358.22625 379.685 358.22625 379.685 
C 358.22625 379.685 358.22625 379.685 358.22625 379.685 
C 358.22625 379.685 358.22625 379.685 358.22625 379.685 
C 358.22625 379.685 358.22625 379.685 358.22625 379.685 
z
" style="fill: #ffffff"/>
   </g>
   <g id="patch_3">
    <path d="M 551.734672 379.685 
L 511.283759 114.581619 
L 203.255523 111.267826 
L 45.551625 379.685 
L 198.0625 657.096753 
L 496.524642 619.224841 
z
" clip-path="url(#p5259308a81)" style="fill: #5180ce; opacity: 0.3; stroke: #5180ce; stroke-linejoin: miter"/>
   </g>
   <g id="matplotlib.axis_1">
    <g id="xtick_1">
     <g id="line2d_1">
      <path d="M 358.22625 379.685 
L 678.55375 379.685 
" clip-path="url(#p5259308a81)" style="fill: none; stroke: #b0b0b0; stroke-opacity: 0.3; stroke-width: 0.8; stroke-linecap: square"/>
     </g>
     <g id="text_1">
      <!-- 2020 -->
      <g transform="translate(675.855 382.99625) scale(0.12 -0.12)">
       <defs>
        <path id="DejaVuSans-Bold-32" d="M 1844 884 
L 3897 884 
L 3897 0 
L 506 0 
L 506 884 
L 2209 2388 
Q 2438 2594 2547 2791 
Q 2656 2988 2656 3200 
Q 2656 3528 2436 3728 
Q 2216 3928 1850 3928 
Q 1569 3928 1234 3808 
Q 900 3688 519 3450 
L 519 4475 
Q 925 4609 1322 4679 
Q 1719 4750 2100 4750 
Q 2938 4750 3402 4381 
Q 3866 4013 3866 3353 
Q 3866 2972 3669 2642 
Q 3472 2313 2841 1759 
L 1844 884 
z
" transform="scale(0.015625)"/>
        <path id="DejaVuSans-Bold-30" d="M 2944 2338 
Q 2944 3213 2780 3570 
Q 2616 3928 2228 3928 
Q 1841 3928 1675 3570 
Q 1509 3213 1509 2338 
Q 1509 1453 1675 1090 
Q 1841 728 2228 728 
Q 2613 728 2778 1090 
Q 2944 1453 2944 2338 
z
M 4147 2328 
Q 4147 1169 3647 539 
Q 3147 -91 2228 -91 
Q 1306 -91 806 539 
Q 306 1169 306 2328 
Q 306 3491 806 4120 
Q 1306 4750 2228 4750 
Q 3147 4750 3647 4120 
Q 4147 3491 4147 2328 
z
" transform="scale(0.015625)"/>
       </defs>
       <use xlink:href="#DejaVuSans-Bold-32"/>
       <use xlink:href="#DejaVuSans-Bold-30" transform="translate(69.580078 0)"/>
       <use xlink:href="#DejaVuSans-Bold-32" transform="translate(139.160156 0)"/>
       <use xlink:href="#DejaVuSans-Bold-30" transform="translate(208.740234 0)"/>
      </g>
     </g>
    </g>
    <g id="xtick_2">
     <g id="line2d_2">
      <path d="M 358.22625 379.685 
L 518.39 102.273247 
" clip-path="url(#p5259308a81)" style="fill: none; stroke: #b0b0b0; stroke-opacity: 0.3; stroke-width: 0.8; stroke-linecap: square"/>
     </g>
     <g id="text_2">
      <!-- 2021 -->
      <g transform="translate(508.69125 93.460142) scale(0.12 -0.12)">
       <defs>
        <path id="DejaVuSans-Bold-31" d="M 750 831 
L 1813 831 
L 1813 3847 
L 722 3622 
L 722 4441 
L 1806 4666 
L 2950 4666 
L 2950 831 
L 4013 831 
L 4013 0 
L 750 0 
L 750 831 
z
" transform="scale(0.015625)"/>
       </defs>
       <use xlink:href="#DejaVuSans-Bold-32"/>
       <use xlink:href="#DejaVuSans-Bold-30" transform="translate(69.580078 0)"/>
       <use xlink:href="#DejaVuSans-Bold-32" transform="translate(139.160156 0)"/>
       <use xlink:href="#DejaVuSans-Bold-31" transform="translate(208.740234 0)"/>
      </g>
     </g>
    </g>
    <g id="xtick_3">
     <g id="line2d_3">
      <path d="M 358.22625 379.685 
L 198.0625 102.273247 
" clip-path="url(#p5259308a81)" style="fill: none; stroke: #b0b0b0; stroke-opacity: 0.3; stroke-width: 0.8; stroke-linecap: square"/>
     </g>
     <g id="text_3">
      <!-- 2022 -->
      <g transform="translate(174.36375 93.460142) scale(0.12 -0.12)">
       <use xlink:href="#DejaVuSans-Bold-32"/>
       <use xlink:href="#DejaVuSans-Bold-30" transform="translate(69.580078 0)"/>
       <use xlink:href="#DejaVuSans-Bold-32" transform="translate(139.160156 0)"/>
       <use xlink:href="#DejaVuSans-Bold-32" transform="translate(208.740234 0)"/>
      </g>
     </g>
    </g>
    <g id="xtick_4">
     <g id="line2d_4">
      <path d="M 358.22625 379.685 
L 37.89875 379.685 
" clip-path="url(#p5259308a81)" style="fill: none; stroke: #b0b0b0; stroke-opacity: 0.3; stroke-width: 0.8; stroke-linecap: square"/>
     </g>
     <g id="text_4">
      <!-- 2023 -->
      <g transform="translate(7.2 382.99625) scale(0.12 -0.12)">
       <defs>
        <path id="DejaVuSans-Bold-33" d="M 2981 2516 
Q 3453 2394 3698 2092 
Q 3944 1791 3944 1325 
Q 3944 631 3412 270 
Q 2881 -91 1863 -91 
Q 1503 -91 1142 -33 
Q 781 25 428 141 
L 428 1069 
Q 766 900 1098 814 
Q 1431 728 1753 728 
Q 2231 728 2486 893 
Q 2741 1059 2741 1369 
Q 2741 1688 2480 1852 
Q 2219 2016 1709 2016 
L 1228 2016 
L 1228 2791 
L 1734 2791 
Q 2188 2791 2409 2933 
Q 2631 3075 2631 3366 
Q 2631 3634 2415 3781 
Q 2200 3928 1806 3928 
Q 1516 3928 1219 3862 
Q 922 3797 628 3669 
L 628 4550 
Q 984 4650 1334 4700 
Q 1684 4750 2022 4750 
Q 2931 4750 3382 4451 
Q 3834 4153 3834 3553 
Q 3834 3144 3618 2883 
Q 3403 2622 2981 2516 
z
" transform="scale(0.015625)"/>
       </defs>
       <use xlink:href="#DejaVuSans-Bold-32"/>
       <use xlink:href="#DejaVuSans-Bold-30" transform="translate(69.580078 0)"/>
       <use xlink:href="#DejaVuSans-Bold-32" transform="translate(139.160156 0)"/>
       <use xlink:href="#DejaVuSans-Bold-33" transform="translate(208.740234 0)"/>
      </g>
     </g>
    </g>
    <g id="xtick_5">
     <g id="line2d_5">
      <path d="M 358.22625 379.685 
L 198.0625 657.096753 
" clip-path="url(#p5259308a81)" style="fill: none; stroke: #b0b0b0; stroke-opacity: 0.3; stroke-width: 0.8; stroke-linecap: square"/>
     </g>
     <g id="text_5">
      <!-- 2024 -->
      <g transform="translate(174.36375 672.532358) scale(0.12 -0.12)">
       <defs>
        <path id="DejaVuSans-Bold-34" d="M 2356 3675 
L 1038 1722 
L 2356 1722 
L 2356 3675 
z
M 2156 4666 
L 3494 4666 
L 3494 1722 
L 4159 1722 
L 4159 850 
L 3494 850 
L 3494 0 
L 2356 0 
L 2356 850 
L 288 850 
L 288 1881 
L 2156 4666 
z
" transform="scale(0.015625)"/>
       </defs>
       <use xlink:href="#DejaVuSans-Bold-32"/>
       <use xlink:href="#DejaVuSans-Bold-30" transform="translate(69.580078 0)"/>
       <use xlink:href="#DejaVuSans-Bold-32" transform="translate(139.160156 0)"/>
       <use xlink:href="#DejaVuSans-Bold-34" transform="translate(208.740234 0)"/>
      </g>
     </g>
    </g>
    <g id="xtick_6">
     <g id="line2d_6">
      <path d="M 358.22625 379.685 
L 518.39 657.096753 
" clip-path="url(#p5259308a81)" style="fill: none; stroke: #b0b0b0; stroke-opacity: 0.3; stroke-width: 0.8; stroke-linecap: square"/>
     </g>
     <g id="text_6">
      <!-- 2025 -->
      <g transform="translate(508.69125 672.532358) scale(0.12 -0.12)">
       <defs>
        <path id="DejaVuSans-Bold-35" d="M 678 4666 
L 3669 4666 
L 3669 3781 
L 1638 3781 
L 1638 3059 
Q 1775 3097 1914 3117 
Q 2053 3138 2203 3138 
Q 3056 3138 3531 2711 
Q 4006 2284 4006 1522 
Q 4006 766 3489 337 
Q 2972 -91 2053 -91 
Q 1656 -91 1267 -14 
Q 878 63 494 219 
L 494 1166 
Q 875 947 1217 837 
Q 1559 728 1863 728 
Q 2300 728 2551 942 
Q 2803 1156 2803 1522 
Q 2803 1891 2551 2103 
Q 2300 2316 1863 2316 
Q 1603 2316 1309 2248 
Q 1016 2181 678 2041 
L 678 4666 
z
" transform="scale(0.015625)"/>
       </defs>
       <use xlink:href="#DejaVuSans-Bold-32"/>
       <use xlink:href="#DejaVuSans-Bold-30" transform="translate(69.580078 0)"/>
       <use xlink:href="#DejaVuSans-Bold-32" transform="translate(139.160156 0)"/>
       <use xlink:href="#DejaVuSans-Bold-35" transform="translate(208.740234 0)"/>
      </g>
     </g>
    </g>
   </g>
   <g id="matplotlib.axis_2">
    <g id="ytick_1">
     <g id="line2d_7">
      <path d="M 422.29175 379.685 
C 422.29175 371.271996 420.634572 362.940797 417.415054 355.168195 
C 414.195537 347.395592 409.476292 340.332743 403.527399 334.383851 
C 397.578507 328.434958 390.515658 323.715713 382.743055 320.496196 
C 374.970453 317.276678 366.639254 315.6195 358.22625 315.6195 
C 349.813246 315.6195 341.482047 317.276678 333.709445 320.496196 
C 325.936842 323.715713 318.873993 328.434958 312.925101 334.383851 
C 306.976208 340.332743 302.256963 347.395592 299.037446 355.168195 
C 295.817928 362.940797 294.16075 371.271996 294.16075 379.685 
C 294.16075 388.098004 295.817928 396.429203 299.037446 404.201805 
C 302.256963 411.974408 306.976208 419.037257 312.925101 424.986149 
C 318.873993 430.935042 325.936842 435.654287 333.709445 438.873804 
C 341.482047 442.093322 349.813246 443.7505 358.22625 443.7505 
C 366.639254 443.7505 374.970453 442.093322 382.743055 438.873804 
C 390.515658 435.654287 397.578507 430.935042 403.527399 424.986149 
C 409.476292 419.037257 414.195537 411.974408 417.415054 404.201805 
C 420.634572 396.429203 422.29175 388.098004 422.29175 379.685 
" clip-path="url(#p5259308a81)" style="fill: none; stroke: #b0b0b0; stroke-opacity: 0.3; stroke-width: 0.8; stroke-linecap: square"/>
     </g>
     <g id="text_7">
      <!-- 20% -->
      <g transform="translate(417.415054 353.088507) scale(0.1 -0.1)">
       <defs>
        <path id="DejaVuSans-32" d="M 1228 531 
L 3431 531 
L 3431 0 
L 469 0 
L 469 531 
Q 828 903 1448 1529 
Q 2069 2156 2228 2338 
Q 2531 2678 2651 2914 
Q 2772 3150 2772 3378 
Q 2772 3750 2511 3984 
Q 2250 4219 1831 4219 
Q 1534 4219 1204 4116 
Q 875 4013 500 3803 
L 500 4441 
Q 881 4594 1212 4672 
Q 1544 4750 1819 4750 
Q 2544 4750 2975 4387 
Q 3406 4025 3406 3419 
Q 3406 3131 3298 2873 
Q 3191 2616 2906 2266 
Q 2828 2175 2409 1742 
Q 1991 1309 1228 531 
z
" transform="scale(0.015625)"/>
        <path id="DejaVuSans-30" d="M 2034 4250 
Q 1547 4250 1301 3770 
Q 1056 3291 1056 2328 
Q 1056 1369 1301 889 
Q 1547 409 2034 409 
Q 2525 409 2770 889 
Q 3016 1369 3016 2328 
Q 3016 3291 2770 3770 
Q 2525 4250 2034 4250 
z
M 2034 4750 
Q 2819 4750 3233 4129 
Q 3647 3509 3647 2328 
Q 3647 1150 3233 529 
Q 2819 -91 2034 -91 
Q 1250 -91 836 529 
Q 422 1150 422 2328 
Q 422 3509 836 4129 
Q 1250 4750 2034 4750 
z
" transform="scale(0.015625)"/>
        <path id="DejaVuSans-25" d="M 4653 2053 
Q 4381 2053 4226 1822 
Q 4072 1591 4072 1178 
Q 4072 772 4226 539 
Q 4381 306 4653 306 
Q 4919 306 5073 539 
Q 5228 772 5228 1178 
Q 5228 1588 5073 1820 
Q 4919 2053 4653 2053 
z
M 4653 2450 
Q 5147 2450 5437 2106 
Q 5728 1763 5728 1178 
Q 5728 594 5436 251 
Q 5144 -91 4653 -91 
Q 4153 -91 3862 251 
Q 3572 594 3572 1178 
Q 3572 1766 3864 2108 
Q 4156 2450 4653 2450 
z
M 1428 4353 
Q 1159 4353 1004 4120 
Q 850 3888 850 3481 
Q 850 3069 1003 2837 
Q 1156 2606 1428 2606 
Q 1700 2606 1854 2837 
Q 2009 3069 2009 3481 
Q 2009 3884 1853 4118 
Q 1697 4353 1428 4353 
z
M 4250 4750 
L 4750 4750 
L 1831 -91 
L 1331 -91 
L 4250 4750 
z
M 1428 4750 
Q 1922 4750 2215 4408 
Q 2509 4066 2509 3481 
Q 2509 2891 2217 2550 
Q 1925 2209 1428 2209 
Q 931 2209 642 2551 
Q 353 2894 353 3481 
Q 353 4063 643 4406 
Q 934 4750 1428 4750 
z
" transform="scale(0.015625)"/>
       </defs>
       <use xlink:href="#DejaVuSans-32"/>
       <use xlink:href="#DejaVuSans-30" transform="translate(63.623047 0)"/>
       <use xlink:href="#DejaVuSans-25" transform="translate(127.246094 0)"/>
      </g>
     </g>
    </g>
    <g id="ytick_2">
     <g id="line2d_8">
      <path d="M 486.35725 379.685 
C 486.35725 362.858991 483.042893 346.196594 476.603858 330.651389 
C 470.164824 315.106184 460.726334 300.980486 448.828549 289.082701 
C 436.930764 277.184916 422.805066 267.746426 407.259861 261.307392 
C 391.714656 254.868357 375.052259 251.554 358.22625 251.554 
C 341.400241 251.554 324.737844 254.868357 309.192639 261.307392 
C 293.647434 267.746426 279.521736 277.184916 267.623951 289.082701 
C 255.726166 300.980486 246.287676 315.106184 239.848642 330.651389 
C 233.409607 346.196594 230.09525 362.858991 230.09525 379.685 
C 230.09525 396.511009 233.409607 413.173406 239.848642 428.718611 
C 246.287676 444.263816 255.726166 458.389514 267.623951 470.287299 
C 279.521736 482.185084 293.647434 491.623574 309.192639 498.062608 
C 324.737844 504.501643 341.400241 507.816 358.22625 507.816 
C 375.052259 507.816 391.714656 504.501643 407.259861 498.062608 
C 422.805066 491.623574 436.930764 482.185084 448.828549 470.287299 
C 460.726334 458.389514 470.164824 444.263816 476.603858 428.718611 
C 483.042893 413.173406 486.35725 396.511009 486.35725 379.685 
" clip-path="url(#p5259308a81)" style="fill: none; stroke: #b0b0b0; stroke-opacity: 0.3; stroke-width: 0.8; stroke-linecap: square"/>
     </g>
     <g id="text_8">
      <!-- 40% -->
      <g transform="translate(476.603858 328.571702) scale(0.1 -0.1)">
       <defs>
        <path id="DejaVuSans-34" d="M 2419 4116 
L 825 1625 
L 2419 1625 
L 2419 4116 
z
M 2253 4666 
L 3047 4666 
L 3047 1625 
L 3713 1625 
L 3713 1100 
L 3047 1100 
L 3047 0 
L 2419 0 
L 2419 1100 
L 313 1100 
L 313 1709 
L 2253 4666 
z
" transform="scale(0.015625)"/>
       </defs>
       <use xlink:href="#DejaVuSans-34"/>
       <use xlink:href="#DejaVuSans-30" transform="translate(63.623047 0)"/>
       <use xlink:href="#DejaVuSans-25" transform="translate(127.246094 0)"/>
      </g>
     </g>
    </g>
    <g id="ytick_3">
     <g id="line2d_9">
      <path d="M 550.42275 379.685 
C 550.42275 354.445987 545.451215 329.452391 535.792663 306.134584 
C 526.13411 282.816776 511.976376 261.628229 494.129698 243.781552 
C 476.283021 225.934874 455.094474 211.77714 431.776666 202.118587 
C 408.458859 192.460035 383.465263 187.4885 358.22625 187.4885 
C 332.987237 187.4885 307.993641 192.460035 284.675834 202.118587 
C 261.358026 211.77714 240.169479 225.934874 222.322802 243.781552 
C 204.476124 261.628229 190.31839 282.816776 180.659837 306.134584 
C 171.001285 329.452391 166.02975 354.445987 166.02975 379.685 
C 166.02975 404.924013 171.001285 429.917609 180.659837 453.235416 
C 190.31839 476.553224 204.476124 497.741771 222.322802 515.588448 
C 240.169479 533.435126 261.358026 547.59286 284.675834 557.251413 
C 307.993641 566.909965 332.987237 571.8815 358.22625 571.8815 
C 383.465263 571.8815 408.458859 566.909965 431.776666 557.251413 
C 455.094474 547.59286 476.283021 533.435126 494.129698 515.588448 
C 511.976376 497.741771 526.13411 476.553224 535.792663 453.235416 
C 545.451215 429.917609 550.42275 404.924013 550.42275 379.685 
" clip-path="url(#p5259308a81)" style="fill: none; stroke: #b0b0b0; stroke-opacity: 0.3; stroke-width: 0.8; stroke-linecap: square"/>
     </g>
     <g id="text_9">
      <!-- 60% -->
      <g transform="translate(535.792663 304.054896) scale(0.1 -0.1)">
       <defs>
        <path id="DejaVuSans-36" d="M 2113 2584 
Q 1688 2584 1439 2293 
Q 1191 2003 1191 1497 
Q 1191 994 1439 701 
Q 1688 409 2113 409 
Q 2538 409 2786 701 
Q 3034 994 3034 1497 
Q 3034 2003 2786 2293 
Q 2538 2584 2113 2584 
z
M 3366 4563 
L 3366 3988 
Q 3128 4100 2886 4159 
Q 2644 4219 2406 4219 
Q 1781 4219 1451 3797 
Q 1122 3375 1075 2522 
Q 1259 2794 1537 2939 
Q 1816 3084 2150 3084 
Q 2853 3084 3261 2657 
Q 3669 2231 3669 1497 
Q 3669 778 3244 343 
Q 2819 -91 2113 -91 
Q 1303 -91 875 529 
Q 447 1150 447 2328 
Q 447 3434 972 4092 
Q 1497 4750 2381 4750 
Q 2619 4750 2861 4703 
Q 3103 4656 3366 4563 
z
" transform="scale(0.015625)"/>
       </defs>
       <use xlink:href="#DejaVuSans-36"/>
       <use xlink:href="#DejaVuSans-30" transform="translate(63.623047 0)"/>
       <use xlink:href="#DejaVuSans-25" transform="translate(127.246094 0)"/>
      </g>
     </g>
    </g>
    <g id="ytick_4">
     <g id="line2d_10">
      <path d="M 614.48825 379.685 
C 614.48825 346.032982 607.859536 312.708188 594.981467 281.617778 
C 582.103397 250.527368 563.226418 222.275972 539.430848 198.480402 
C 515.635278 174.684832 487.383882 155.807853 456.293472 142.929783 
C 425.203062 130.051714 391.878268 123.423 358.22625 123.423 
C 324.574232 123.423 291.249438 130.051714 260.159028 142.929783 
C 229.068618 155.807853 200.817222 174.684832 177.021652 198.480402 
C 153.226082 222.275972 134.349103 250.527368 121.471033 281.617778 
C 108.592964 312.708188 101.96425 346.032982 101.96425 379.685 
C 101.96425 413.337018 108.592964 446.661812 121.471033 477.752222 
C 134.349103 508.842632 153.226082 537.094028 177.021652 560.889598 
C 200.817222 584.685168 229.068618 603.562147 260.159028 616.440217 
C 291.249438 629.318286 324.574232 635.947 358.22625 635.947 
C 391.878268 635.947 425.203062 629.318286 456.293472 616.440217 
C 487.383882 603.562147 515.635278 584.685168 539.430848 560.889598 
C 563.226418 537.094028 582.103397 508.842632 594.981467 477.752222 
C 607.859536 446.661812 614.48825 413.337018 614.48825 379.685 
" clip-path="url(#p5259308a81)" style="fill: none; stroke: #b0b0b0; stroke-opacity: 0.3; stroke-width: 0.8; stroke-linecap: square"/>
     </g>
     <g id="text_10">
      <!-- 80% -->
      <g transform="translate(594.981467 279.538091) scale(0.1 -0.1)">
       <defs>
        <path id="DejaVuSans-38" d="M 2034 2216 
Q 1584 2216 1326 1975 
Q 1069 1734 1069 1313 
Q 1069 891 1326 650 
Q 1584 409 2034 409 
Q 2484 409 2743 651 
Q 3003 894 3003 1313 
Q 3003 1734 2745 1975 
Q 2488 2216 2034 2216 
z
M 1403 2484 
Q 997 2584 770 2862 
Q 544 3141 544 3541 
Q 544 4100 942 4425 
Q 1341 4750 2034 4750 
Q 2731 4750 3128 4425 
Q 3525 4100 3525 3541 
Q 3525 3141 3298 2862 
Q 3072 2584 2669 2484 
Q 3125 2378 3379 2068 
Q 3634 1759 3634 1313 
Q 3634 634 3220 271 
Q 2806 -91 2034 -91 
Q 1263 -91 848 271 
Q 434 634 434 1313 
Q 434 1759 690 2068 
Q 947 2378 1403 2484 
z
M 1172 3481 
Q 1172 3119 1398 2916 
Q 1625 2713 2034 2713 
Q 2441 2713 2670 2916 
Q 2900 3119 2900 3481 
Q 2900 3844 2670 4047 
Q 2441 4250 2034 4250 
Q 1625 4250 1398 4047 
Q 1172 3844 1172 3481 
z
" transform="scale(0.015625)"/>
       </defs>
       <use xlink:href="#DejaVuSans-38"/>
       <use xlink:href="#DejaVuSans-30" transform="translate(63.623047 0)"/>
       <use xlink:href="#DejaVuSans-25" transform="translate(127.246094 0)"/>
      </g>
     </g>
    </g>
    <g id="ytick_5">
     <g id="line2d_11">
      <path d="M 678.55375 379.685 
C 678.55375 337.619978 670.267858 295.963986 654.170271 257.100973 
C 638.072684 218.23796 614.47646 182.923715 584.731997 153.179253 
C 554.987535 123.43479 519.67329 99.838566 480.810277 83.740979 
C 441.947264 67.643392 400.291272 59.3575 358.22625 59.3575 
C 316.161228 59.3575 274.505236 67.643392 235.642223 83.740979 
C 196.77921 99.838566 161.464965 123.43479 131.720503 153.179253 
C 101.97604 182.923715 78.379816 218.23796 62.282229 257.100973 
C 46.184642 295.963986 37.89875 337.619978 37.89875 379.685 
C 37.89875 421.750022 46.184642 463.406014 62.282229 502.269027 
C 78.379816 541.13204 101.97604 576.446285 131.720503 606.190747 
C 161.464965 635.93521 196.77921 659.531434 235.642223 675.629021 
C 274.505236 691.726608 316.161228 700.0125 358.22625 700.0125 
C 400.291272 700.0125 441.947264 691.726608 480.810277 675.629021 
C 519.67329 659.531434 554.987535 635.93521 584.731997 606.190747 
C 614.47646 576.446285 638.072684 541.13204 654.170271 502.269027 
C 670.267858 463.406014 678.55375 421.750022 678.55375 379.685 
" clip-path="url(#p5259308a81)" style="fill: none; stroke: #b0b0b0; stroke-opacity: 0.3; stroke-width: 0.8; stroke-linecap: square"/>
     </g>
     <g id="text_11">
      <!-- 100% -->
      <g transform="translate(654.170271 255.021285) scale(0.1 -0.1)">
       <defs>
        <path id="DejaVuSans-31" d="M 794 531 
L 1825 531 
L 1825 4091 
L 703 3866 
L 703 4441 
L 1819 4666 
L 2450 4666 
L 2450 531 
L 3481 531 
L 3481 0 
L 794 0 
L 794 531 
z
" transform="scale(0.015625)"/>
       </defs>
       <use xlink:href="#DejaVuSans-31"/>
       <use xlink:href="#DejaVuSans-30" transform="translate(63.623047 0)"/>
       <use xlink:href="#DejaVuSans-30" transform="translate(127.246094 0)"/>
       <use xlink:href="#DejaVuSans-25" transform="translate(190.869141 0)"/>
      </g>
     </g>
    </g>
   </g>
   <g id="line2d_12">
    <path d="M 551.734672 379.685 
L 511.283759 114.581619 
" clip-path="url(#p5259308a81)" style="fill: none; stroke: #466bc3; stroke-width: 3; stroke-linecap: square"/>
    <defs>
     <path id="mb626bc9f9f" d="M 0 3 
C 0.795609 3 1.55874 2.683901 2.12132 2.12132 
C 2.683901 1.55874 3 0.795609 3 0 
C 3 -0.795609 2.683901 -1.55874 2.12132 -2.12132 
C 1.55874 -2.683901 0.795609 -3 0 -3 
C -0.795609 -3 -1.55874 -2.683901 -2.12132 -2.12132 
C -2.683901 -1.55874 -3 -0.795609 -3 0 
C -3 0.795609 -2.683901 1.55874 -2.12132 2.12132 
C -1.55874 2.683901 -0.795609 3 0 3 
z
" style="stroke: #466bc3"/>
    </defs>
    <g clip-path="url(#p5259308a81)">
     <use xlink:href="#mb626bc9f9f" x="551.734672" y="379.685" style="fill: #466bc3; stroke: #466bc3"/>
     <use xlink:href="#mb626bc9f9f" x="511.283759" y="114.581619" style="fill: #466bc3; stroke: #466bc3"/>
    </g>
   </g>
   <g id="line2d_13">
    <path d="M 511.283759 114.581619 
L 203.255523 111.267826 
" clip-path="url(#p5259308a81)" style="fill: none; stroke: #1f24a0; stroke-width: 3; stroke-linecap: square"/>
    <defs>
     <path id="m3343e24875" d="M 0 3 
C 0.795609 3 1.55874 2.683901 2.12132 2.12132 
C 2.683901 1.55874 3 0.795609 3 0 
C 3 -0.795609 2.683901 -1.55874 2.12132 -2.12132 
C 1.55874 -2.683901 0.795609 -3 0 -3 
C -0.795609 -3 -1.55874 -2.683901 -2.12132 -2.12132 
C -2.683901 -1.55874 -3 -0.795609 -3 0 
C -3 0.795609 -2.683901 1.55874 -2.12132 2.12132 
C -1.55874 2.683901 -0.795609 3 0 3 
z
" style="stroke: #1f24a0"/>
    </defs>
    <g clip-path="url(#p5259308a81)">
     <use xlink:href="#m3343e24875" x="511.283759" y="114.581619" style="fill: #1f24a0; stroke: #1f24a0"/>
     <use xlink:href="#m3343e24875" x="203.255523" y="111.267826" style="fill: #1f24a0; stroke: #1f24a0"/>
    </g>
   </g>
   <g id="line2d_14">
    <path d="M 203.255523 111.267826 
L 45.551625 379.685 
" clip-path="url(#p5259308a81)" style="fill: none; stroke: #1d219f; stroke-width: 3; stroke-linecap: square"/>
    <defs>
     <path id="m4a92132adf" d="M 0 3 
C 0.795609 3 1.55874 2.683901 2.12132 2.12132 
C 2.683901 1.55874 3 0.795609 3 0 
C 3 -0.795609 2.683901 -1.55874 2.12132 -2.12132 
C 1.55874 -2.683901 0.795609 -3 0 -3 
C -0.795609 -3 -1.55874 -2.683901 -2.12132 -2.12132 
C -2.683901 -1.55874 -3 -0.795609 -3 0 
C -3 0.795609 -2.683901 1.55874 -2.12132 2.12132 
C -1.55874 2.683901 -0.795609 3 0 3 
z
" style="stroke: #1d219f"/>
    </defs>
    <g clip-path="url(#p5259308a81)">
     <use xlink:href="#m4a92132adf" x="203.255523" y="111.267826" style="fill: #1d219f; stroke: #1d219f"/>
     <use xlink:href="#m4a92132adf" x="45.551625" y="379.685" style="fill: #1d219f; stroke: #1d219f"/>
    </g>
   </g>
   <g id="line2d_15">
    <path d="M 45.551625 379.685 
L 198.0625 657.096753 
" clip-path="url(#p5259308a81)" style="fill: none; stroke: #1d209e; stroke-width: 3; stroke-linecap: square"/>
    <defs>
     <path id="mb0bda30d48" d="M 0 3 
C 0.795609 3 1.55874 2.683901 2.12132 2.12132 
C 2.683901 1.55874 3 0.795609 3 0 
C 3 -0.795609 2.683901 -1.55874 2.12132 -2.12132 
C 1.55874 -2.683901 0.795609 -3 0 -3 
C -0.795609 -3 -1.55874 -2.683901 -2.12132 -2.12132 
C -2.683901 -1.55874 -3 -0.795609 -3 0 
C -3 0.795609 -2.683901 1.55874 -2.12132 2.12132 
C -1.55874 2.683901 -0.795609 3 0 3 
z
" style="stroke: #1d209e"/>
    </defs>
    <g clip-path="url(#p5259308a81)">
     <use xlink:href="#mb0bda30d48" x="45.551625" y="379.685" style="fill: #1d209e; stroke: #1d209e"/>
     <use xlink:href="#mb0bda30d48" x="198.0625" y="657.096753" style="fill: #1d209e; stroke: #1d209e"/>
    </g>
   </g>
   <g id="line2d_16">
    <path d="M 198.0625 657.096753 
L 496.524642 619.224841 
" clip-path="url(#p5259308a81)" style="fill: none; stroke: #1a1b9c; stroke-width: 3; stroke-linecap: square"/>
    <defs>
     <path id="m1bd090978a" d="M 0 3 
C 0.795609 3 1.55874 2.683901 2.12132 2.12132 
C 2.683901 1.55874 3 0.795609 3 0 
C 3 -0.795609 2.683901 -1.55874 2.12132 -2.12132 
C 1.55874 -2.683901 0.795609 -3 0 -3 
C -0.795609 -3 -1.55874 -2.683901 -2.12132 -2.12132 
C -2.683901 -1.55874 -3 -0.795609 -3 0 
C -3 0.795609 -2.683901 1.55874 -2.12132 2.12132 
C -1.55874 2.683901 -0.795609 3 0 3 
z
" style="stroke: #1a1b9c"/>
    </defs>
    <g clip-path="url(#p5259308a81)">
     <use xlink:href="#m1bd090978a" x="198.0625" y="657.096753" style="fill: #1a1b9c; stroke: #1a1b9c"/>
     <use xlink:href="#m1bd090978a" x="496.524642" y="619.224841" style="fill: #1a1b9c; stroke: #1a1b9c"/>
    </g>
   </g>
   <g id="line2d_17">
    <path d="M 496.524642 619.224841 
L 551.734672 379.685 
" clip-path="url(#p5259308a81)" style="fill: none; stroke: #2936a9; stroke-width: 3; stroke-linecap: square"/>
    <defs>
     <path id="m7c29337bd5" d="M 0 3 
C 0.795609 3 1.55874 2.683901 2.12132 2.12132 
C 2.683901 1.55874 3 0.795609 3 0 
C 3 -0.795609 2.683901 -1.55874 2.12132 -2.12132 
C 1.55874 -2.683901 0.795609 -3 0 -3 
C -0.795609 -3 -1.55874 -2.683901 -2.12132 -2.12132 
C -2.683901 -1.55874 -3 -0.795609 -3 0 
C -3 0.795609 -2.683901 1.55874 -2.12132 2.12132 
C -1.55874 2.683901 -0.795609 3 0 3 
z
" style="stroke: #2936a9"/>
    </defs>
    <g clip-path="url(#p5259308a81)">
     <use xlink:href="#m7c29337bd5" x="496.524642" y="619.224841" style="fill: #2936a9; stroke: #2936a9"/>
     <use xlink:href="#m7c29337bd5" x="551.734672" y="379.685" style="fill: #2936a9; stroke: #2936a9"/>
    </g>
   </g>
   <g id="patch_4">
    <path d="M 678.55375 379.685 
C 678.55375 337.619978 670.267858 295.963986 654.170271 257.100973 
C 638.072684 218.23796 614.47646 182.923715 584.731997 153.179253 
C 554.987535 123.43479 519.67329 99.838566 480.810277 83.740979 
C 441.947264 67.643392 400.291272 59.3575 358.22625 59.3575 
C 316.161228 59.3575 274.505236 67.643392 235.642223 83.740979 
C 196.77921 99.838566 161.464965 123.43479 131.720503 153.179253 
C 101.97604 182.923715 78.379816 218.23796 62.282229 257.100973 
C 46.184642 295.963986 37.89875 337.619978 37.89875 379.685 
C 37.89875 421.750022 46.184642 463.406014 62.282229 502.269027 
C 78.379816 541.13204 101.97604 576.446285 131.720503 606.190747 
C 161.464965 635.93521 196.77921 659.531434 235.642223 675.629021 
C 274.505236 691.726608 316.161228 700.0125 358.22625 700.0125 
C 400.291272 700.0125 441.947264 691.726608 480.810277 675.629021 
C 519.67329 659.531434 554.987535 635.93521 584.731997 606.190747 
C 614.47646 576.446285 638.072684 541.13204 654.170271 502.269027 
C 670.267858 463.406014 678.55375 421.750022 678.55375 379.685 
" style="fill: none; stroke: #000000; stroke-width: 0.8; stroke-linejoin: miter; stroke-linecap: square"/>
   </g>
   <g id="text_12">
    <!-- ОТНОСИТЕЛЬНАЯ АКТИВНОСТЬ ПО ГОДАМ -->
    <g transform="translate(160.26375 19.3575) scale(0.16 -0.16)">
     <defs>
      <path id="DejaVuSans-Bold-41e" d="M 2719 3878 
Q 2169 3878 1866 3472 
Q 1563 3066 1563 2328 
Q 1563 1594 1866 1187 
Q 2169 781 2719 781 
Q 3272 781 3575 1187 
Q 3878 1594 3878 2328 
Q 3878 3066 3575 3472 
Q 3272 3878 2719 3878 
z
M 2719 4750 
Q 3844 4750 4481 4106 
Q 5119 3463 5119 2328 
Q 5119 1197 4481 553 
Q 3844 -91 2719 -91 
Q 1597 -91 958 553 
Q 319 1197 319 2328 
Q 319 3463 958 4106 
Q 1597 4750 2719 4750 
z
" transform="scale(0.015625)"/>
      <path id="DejaVuSans-Bold-422" d="M 31 4666 
L 4331 4666 
L 4331 3756 
L 2784 3756 
L 2784 0 
L 1581 0 
L 1581 3756 
L 31 3756 
L 31 4666 
z
" transform="scale(0.015625)"/>
      <path id="DejaVuSans-Bold-41d" d="M 588 4666 
L 1791 4666 
L 1791 2888 
L 3566 2888 
L 3566 4666 
L 4769 4666 
L 4769 0 
L 3566 0 
L 3566 1978 
L 1791 1978 
L 1791 0 
L 588 0 
L 588 4666 
z
" transform="scale(0.015625)"/>
      <path id="DejaVuSans-Bold-421" d="M 4288 256 
Q 3956 84 3597 -3 
Q 3238 -91 2847 -91 
Q 1681 -91 1000 561 
Q 319 1213 319 2328 
Q 319 3447 1000 4098 
Q 1681 4750 2847 4750 
Q 3238 4750 3597 4662 
Q 3956 4575 4288 4403 
L 4288 3438 
Q 3953 3666 3628 3772 
Q 3303 3878 2944 3878 
Q 2300 3878 1931 3465 
Q 1563 3053 1563 2328 
Q 1563 1606 1931 1193 
Q 2300 781 2944 781 
Q 3303 781 3628 887 
Q 3953 994 4288 1222 
L 4288 256 
z
" transform="scale(0.015625)"/>
      <path id="DejaVuSans-Bold-418" d="M 4769 4666 
L 4769 0 
L 3628 0 
L 3628 3200 
L 1931 0 
L 588 0 
L 588 4666 
L 1728 4666 
L 1728 1466 
L 3425 4666 
L 4769 4666 
z
" transform="scale(0.015625)"/>
      <path id="DejaVuSans-Bold-415" d="M 588 4666 
L 3834 4666 
L 3834 3756 
L 1791 3756 
L 1791 2888 
L 3713 2888 
L 3713 1978 
L 1791 1978 
L 1791 909 
L 3903 909 
L 3903 0 
L 588 0 
L 588 4666 
z
" transform="scale(0.015625)"/>
      <path id="DejaVuSans-Bold-41b" d="M 294 0 
L 294 909 
Q 1088 997 1247 1514 
Q 1406 2031 1406 3784 
L 1406 4666 
L 4728 4666 
L 4728 0 
L 3525 0 
L 3525 3756 
L 2609 3756 
L 2609 3472 
Q 2609 1759 2306 967 
Q 2003 175 294 0 
z
" transform="scale(0.015625)"/>
      <path id="DejaVuSans-Bold-42c" d="M 2497 819 
Q 2875 819 3044 959 
Q 3225 1113 3225 1403 
Q 3225 1688 3044 1838 
Q 2878 1978 2497 1978 
L 1791 1978 
L 1791 819 
L 2497 819 
z
M 4428 1441 
Q 4428 697 3972 366 
Q 3469 0 2584 0 
L 588 0 
L 588 4666 
L 1791 4666 
L 1791 2888 
L 2584 2888 
Q 3469 2888 3972 2522 
Q 4428 2191 4428 1441 
z
" transform="scale(0.015625)"/>
      <path id="DejaVuSans-Bold-410" d="M 3419 850 
L 1538 850 
L 1241 0 
L 31 0 
L 1759 4666 
L 3194 4666 
L 4922 0 
L 3713 0 
L 3419 850 
z
M 1838 1716 
L 3116 1716 
L 2478 3572 
L 1838 1716 
z
" transform="scale(0.015625)"/>
      <path id="DejaVuSans-Bold-42f" d="M 1831 3200 
Q 1831 2878 1995 2737 
Q 2159 2597 2538 2597 
L 3138 2597 
L 3138 3794 
L 2538 3794 
Q 2159 3794 1995 3656 
Q 1831 3519 1831 3200 
z
M 409 0 
L 1572 1981 
Q 1334 2116 981 2452 
Q 628 2788 628 3253 
Q 628 3953 1058 4309 
Q 1488 4666 2409 4666 
L 4341 4666 
L 4341 0 
L 3138 0 
L 3138 1766 
L 2728 1766 
L 1691 0 
L 409 0 
z
" transform="scale(0.015625)"/>
      <path id="DejaVuSans-Bold-20" transform="scale(0.015625)"/>
      <path id="DejaVuSans-Bold-41a" d="M 588 4666 
L 1791 4666 
L 1791 2741 
L 3672 4666 
L 5034 4666 
L 3181 2775 
L 5138 0 
L 3813 0 
L 2409 1988 
L 1791 1356 
L 1791 0 
L 588 0 
L 588 4666 
z
" transform="scale(0.015625)"/>
      <path id="DejaVuSans-Bold-412" d="M 2456 2859 
Q 2741 2859 2887 2984 
Q 3034 3109 3034 3353 
Q 3034 3594 2887 3720 
Q 2741 3847 2456 3847 
L 1791 3847 
L 1791 2859 
L 2456 2859 
z
M 2497 819 
Q 2859 819 3042 972 
Q 3225 1125 3225 1434 
Q 3225 1738 3044 1889 
Q 2863 2041 2497 2041 
L 1791 2041 
L 1791 819 
L 2497 819 
z
M 3616 2497 
Q 4003 2384 4215 2081 
Q 4428 1778 4428 1338 
Q 4428 663 3972 331 
Q 3516 0 2584 0 
L 588 0 
L 588 4666 
L 2394 4666 
Q 3366 4666 3802 4372 
Q 4238 4078 4238 3431 
Q 4238 3091 4078 2852 
Q 3919 2613 3616 2497 
z
" transform="scale(0.015625)"/>
      <path id="DejaVuSans-Bold-41f" d="M 4769 4666 
L 4769 0 
L 3566 0 
L 3566 3756 
L 1791 3756 
L 1791 0 
L 588 0 
L 588 4666 
L 4769 4666 
z
" transform="scale(0.015625)"/>
      <path id="DejaVuSans-Bold-413" d="M 588 0 
L 588 4666 
L 3903 4666 
L 3903 3756 
L 1791 3756 
L 1791 0 
L 588 0 
z
" transform="scale(0.015625)"/>
      <path id="DejaVuSans-Bold-414" d="M 2153 909 
L 3453 909 
L 3453 3756 
L 2444 3756 
L 2444 3472 
Q 2444 1472 2153 909 
z
M 734 909 
Q 1059 1125 1150 1442 
Q 1241 1759 1241 3784 
L 1241 4666 
L 4656 4666 
L 4656 909 
L 5316 909 
L 5316 -1003 
L 4406 -1003 
L 4406 0 
L 1294 0 
L 1294 -1003 
L 384 -1003 
L 384 909 
L 734 909 
z
" transform="scale(0.015625)"/>
      <path id="DejaVuSans-Bold-41c" d="M 588 4666 
L 2119 4666 
L 3181 2169 
L 4250 4666 
L 5778 4666 
L 5778 0 
L 4641 0 
L 4641 3413 
L 3566 897 
L 2803 897 
L 1728 3413 
L 1728 0 
L 588 0 
L 588 4666 
z
" transform="scale(0.015625)"/>
     </defs>
     <use xlink:href="#DejaVuSans-Bold-41e"/>
     <use xlink:href="#DejaVuSans-Bold-422" transform="translate(85.009766 0)"/>
     <use xlink:href="#DejaVuSans-Bold-41d" transform="translate(153.222656 0)"/>
     <use xlink:href="#DejaVuSans-Bold-41e" transform="translate(236.914062 0)"/>
     <use xlink:href="#DejaVuSans-Bold-421" transform="translate(321.923828 0)"/>
     <use xlink:href="#DejaVuSans-Bold-418" transform="translate(395.3125 0)"/>
     <use xlink:href="#DejaVuSans-Bold-422" transform="translate(479.003906 0)"/>
     <use xlink:href="#DejaVuSans-Bold-415" transform="translate(547.216797 0)"/>
     <use xlink:href="#DejaVuSans-Bold-41b" transform="translate(615.527344 0)"/>
     <use xlink:href="#DejaVuSans-Bold-42c" transform="translate(698.583984 0)"/>
     <use xlink:href="#DejaVuSans-Bold-41d" transform="translate(774.804688 0)"/>
     <use xlink:href="#DejaVuSans-Bold-410" transform="translate(858.496094 0)"/>
     <use xlink:href="#DejaVuSans-Bold-42f" transform="translate(935.888672 0)"/>
     <use xlink:href="#DejaVuSans-Bold-20" transform="translate(1012.890625 0)"/>
     <use xlink:href="#DejaVuSans-Bold-410" transform="translate(1047.705078 0)"/>
     <use xlink:href="#DejaVuSans-Bold-41a" transform="translate(1125.097656 0)"/>
     <use xlink:href="#DejaVuSans-Bold-422" transform="translate(1206.835938 0)"/>
     <use xlink:href="#DejaVuSans-Bold-418" transform="translate(1275.048828 0)"/>
     <use xlink:href="#DejaVuSans-Bold-412" transform="translate(1358.740234 0)"/>
     <use xlink:href="#DejaVuSans-Bold-41d" transform="translate(1434.960938 0)"/>
     <use xlink:href="#DejaVuSans-Bold-41e" transform="translate(1518.652344 0)"/>
     <use xlink:href="#DejaVuSans-Bold-421" transform="translate(1603.662109 0)"/>
     <use xlink:href="#DejaVuSans-Bold-422" transform="translate(1677.050781 0)"/>
     <use xlink:href="#DejaVuSans-Bold-42c" transform="translate(1745.263672 0)"/>
     <use xlink:href="#DejaVuSans-Bold-20" transform="translate(1821.484375 0)"/>
     <use xlink:href="#DejaVuSans-Bold-41f" transform="translate(1856.298828 0)"/>
     <use xlink:href="#DejaVuSans-Bold-41e" transform="translate(1939.990234 0)"/>
     <use xlink:href="#DejaVuSans-Bold-20" transform="translate(2025 0)"/>
     <use xlink:href="#DejaVuSans-Bold-413" transform="translate(2059.814453 0)"/>
     <use xlink:href="#DejaVuSans-Bold-41e" transform="translate(2123.535156 0)"/>
     <use xlink:href="#DejaVuSans-Bold-414" transform="translate(2208.544922 0)"/>
     <use xlink:href="#DejaVuSans-Bold-410" transform="translate(2297.607422 0)"/>
     <use xlink:href="#DejaVuSans-Bold-41c" transform="translate(2375 0)"/>
    </g>
   </g>
  </g>
 </g>
 <defs>
  <clipPath id="p5259308a81">
   <path d="M 678.55375 379.685 
C 678.55375 337.619978 670.267858 295.963986 654.170271 257.100973 
C 638.072684 218.23796 614.47646 182.923715 584.731997 153.179253 
C 554.987535 123.43479 519.67329 99.838566 480.810277 83.740979 
C 441.947264 67.643392 400.291272 59.3575 358.22625 59.3575 
C 316.161228 59.3575 274.505236 67.643392 235.642223 83.740979 
C 196.77921 99.838566 161.464965 123.43479 131.720503 153.179253 
C 101.97604 182.923715 78.379816 218.23796 62.282229 257.100973 
C 46.184642 295.963986 37.89875 337.619978 37.89875 379.685 
C 37.89875 421.750022 46.184642 463.406014 62.282229 502.269027 
C 78.379816 541.13204 101.97604 576.446285 131.720503 606.190747 
C 161.464965 635.93521 196.77921 659.531434 235.642223 675.629021 
C 274.505236 691.726608 316.161228 700.0125 358.22625 700.0125 
C 400.291272 700.0125 441.947264 691.726608 480.810277 675.629021 
C 519.67329 659.531434 554.987535 635.93521 584.731997 606.190747 
C 614.47646 576.446285 638.072684 541.13204 654.170271 502.269027 
C 670.267858 463.406014 678.55375 421.750022 678.55375 379.685 
M 358.22625 379.685 
C 358.22625 379.685 358.22625 379.685 358.22625 379.685 
C 358.22625 379.685 358.22625 379.685 358.22625 379.685 
C 358.22625 379.685 358.22625 379.685 358.22625 379.685 
C 358.22625 379.685 358.22625 379.685 358.22625 379.685 
C 358.22625 379.685 358.22625 379.685 358.22625 379.685 
C 358.22625 379.685 358.22625 379.685 358.22625 379.685 
C 358.22625 379.685 358.22625 379.685 358.22625 379.685 
C 358.22625 379.685 358.22625 379.685 358.22625 379.685 
C 358.22625 379.685 358.22625 379.685 358.22625 379.685 
C 358.22625 379.685 358.22625 379.685 358.22625 379.685 
C 358.22625 379.685 358.22625 379.685 358.22625 379.685 
C 358.22625 379.685 358.22625 379.685 358.22625 379.685 
C 358.22625 379.685 358.22625 379.685 358.22625 379.685 
C 358.22625 379.685 358.22625 379.685 358.22625 379.685 
C 358.22625 379.685 358.22625 379.685 358.22625 379.685 
C 358.22625 379.685 358.22625 379.685 358.22625 379.685 
z
"/>
  </clipPath>
 </defs>
</svg>
